<svg width="24" height="25" viewBox="0 0 24 25" fill="none" xmlns="http://www.w3.org/2000/svg">
<g id="Avatar" opacity="0.5">
<rect x="0.5" y="1" width="23" height="23" rx="11.5" stroke="white"/>
<path id="Vector" d="M12.0013 4.46777C7.57098 4.46777 3.96875 8.07 3.96875 12.5003C3.96875 16.9306 7.57098 20.5328 12.0013 20.5328C16.4315 20.5328 20.0338 16.9306 20.0338 12.5003C20.0338 8.07 16.4295 4.46777 12.0013 4.46777ZM13.3133 9.13207C13.8614 9.13207 14.1474 10.0961 14.1474 11.0482C14.1474 12.0002 13.8614 12.9643 13.3133 12.9643C12.7653 12.9643 12.4793 12.0002 12.4793 11.0482C12.4793 10.0961 12.7653 9.13207 13.3133 9.13207ZM9.38909 9.13207C9.93712 9.13207 10.2231 10.0961 10.2231 11.0482C10.2231 12.0002 9.93712 12.9643 9.38909 12.9643C8.84106 12.9643 8.55504 12.0002 8.55504 11.0482C8.55504 10.0961 8.84106 9.13207 9.38909 9.13207ZM11.7772 18.1226C10.5032 18.1226 9.28508 17.7306 8.25502 16.9926C8.031 16.8325 7.979 16.5185 8.14101 16.2945C8.21902 16.1865 8.33502 16.1145 8.46703 16.0925C8.59904 16.0705 8.73105 16.1025 8.83906 16.1805C9.69911 16.7985 10.7152 17.1246 11.7792 17.1246C14.5634 17.1246 16.8276 14.8604 16.8276 12.0763C16.8276 11.8002 17.0516 11.5762 17.3276 11.5762C17.6036 11.5762 17.8276 11.8002 17.8276 12.0763C17.8276 15.4125 15.1134 18.1246 11.7792 18.1246L11.7772 18.1226Z" fill="white"/>
</g>
</svg>
