<svg width="23" height="22" viewBox="0 0 23 22" fill="none" xmlns="http://www.w3.org/2000/svg">
<g id="Property 1=calendar">
<path id="Vector" d="M17.6855 3.175H16.7855V1.375H14.9855V3.175H7.78546V1.375H5.98546V3.175H5.08546C4.08646 3.175 3.29446 3.985 3.29446 4.975L3.28546 17.575C3.28546 18.565 4.08646 19.375 5.08546 19.375H17.6855C18.6755 19.375 19.4855 18.565 19.4855 17.575V4.975C19.4855 3.985 18.6755 3.175 17.6855 3.175ZM17.6855 17.575H5.08546V8.575H17.6855V17.575ZM8.68546 12.175H6.88546V10.375H8.68546V12.175ZM12.2855 12.175H10.4855V10.375H12.2855V12.175ZM15.8855 12.175H14.0855V10.375H15.8855V12.175ZM8.68546 15.775H6.88546V13.975H8.68546V15.775ZM12.2855 15.775H10.4855V13.975H12.2855V15.775ZM15.8855 15.775H14.0855V13.975H15.8855V15.775Z" fill="url(#paint0_linear_949_1725)"/>
</g>
<defs>
<linearGradient id="paint0_linear_949_1725" x1="11.7473" y1="1.4582" x2="11.7473" y2="15.775" gradientUnits="userSpaceOnUse">
<stop stop-color="#E1FF27"/>
<stop offset="1" stop-color="#01F9CC"/>
</linearGradient>
</defs>
</svg>
