<svg width="23" height="22" viewBox="0 0 23 22" fill="none" xmlns="http://www.w3.org/2000/svg">
<g id="Frame 630110">
<path id="Vector" d="M5.64232 15.2358C5.63997 15.2358 5.63789 15.2343 5.6372 15.232L4.68614 12.1268C4.6211 11.9135 4.3193 11.9135 4.25426 12.1268L3.30203 15.2358C3.24219 15.4128 3.10691 15.5558 2.93259 15.6261L0.640492 16.5497C0.453169 16.6251 0.453169 16.8931 0.640492 16.9686L2.9404 17.8948C3.11211 17.9624 3.2448 18.1029 3.30724 18.2746L4.25946 21.2198C4.3271 21.4279 4.6211 21.4279 4.68874 21.2198L5.64096 18.2746C5.7034 18.1003 5.83609 17.9624 6.0078 17.8948L8.30771 16.9686C8.49503 16.8931 8.49503 16.6251 8.30771 16.5497L6.01561 15.6261C5.84249 15.5563 5.70787 15.4147 5.64741 15.2395C5.64666 15.2373 5.64462 15.2358 5.64232 15.2358Z" fill="white"/>
<path id="Vector_2" d="M7.16186 3.89013C7.1595 3.89013 7.15742 3.8886 7.15673 3.88635L6.20567 0.781098C6.14063 0.567759 5.83883 0.567759 5.77379 0.781098L4.82157 3.89013C4.76173 4.06705 4.62644 4.21014 4.45212 4.28039L2.16002 5.20399C1.9727 5.27944 1.9727 5.54742 2.16002 5.62287L4.45993 6.54907C4.63164 6.61672 4.76433 6.75721 4.82677 6.92892L5.77899 9.87405C5.84664 10.0822 6.14063 10.0822 6.20827 9.87405L7.1605 6.92892C7.22294 6.75461 7.35562 6.61672 7.52734 6.54907L9.82724 5.62287C10.0146 5.54742 10.0146 5.27944 9.82724 5.20399L7.53514 4.28039C7.36202 4.21062 7.2274 4.06901 7.16694 3.89377C7.16619 3.8916 7.16415 3.89013 7.16186 3.89013Z" fill="white"/>
<path id="Vector_3" d="M12.4574 14.7838L14.38 21.1137C14.4867 21.4676 14.9888 21.4676 15.0955 21.1137L17.0182 14.7838C17.117 14.4846 17.3408 14.2453 17.6322 14.1282L22.2658 12.2628C22.578 12.1379 22.578 11.6956 22.2658 11.5681L17.6139 9.69487C17.333 9.583 17.1144 9.35405 17.0104 9.07047L15.0929 3.30249C14.9784 2.96167 14.4971 2.96167 14.3826 3.30249L12.4652 9.07047C12.3611 9.35405 12.1426 9.583 11.8616 9.69487L7.20974 11.5681C6.89753 11.693 6.89753 12.1353 7.20974 12.2628L11.8434 14.1282C12.1348 14.2453 12.3585 14.4846 12.4574 14.7838Z" fill="white"/>
</g>
</svg>
