<svg width="23" height="21" viewBox="0 0 23 21" fill="none" xmlns="http://www.w3.org/2000/svg">
<g id="Frame 630110">
<path id="Vector" d="M20 8.67773V5.67773H18V8.67773H15V10.6777H18V13.6777H20V10.6777H23V8.67773H20ZM9 11.6777C11.21 11.6777 13 9.88773 13 7.67773C13 5.46773 11.21 3.67773 9 3.67773C6.79 3.67773 5 5.46773 5 7.67773C5 9.88773 6.79 11.6777 9 11.6777ZM15.39 14.2377C13.71 13.3777 11.53 12.6777 9 12.6777C6.47 12.6777 4.29 13.3777 2.61 14.2377C1.61 14.7477 1 15.7777 1 16.8977V19.6777H17V16.8977C17 15.7777 16.39 14.7477 15.39 14.2377Z" fill="white"/>
</g>
</svg>
