<svg width="23" height="22" viewBox="0 0 23 22" fill="none" xmlns="http://www.w3.org/2000/svg">
<g id="Property 1=location">
<path id="Vector" d="M11.305 1C6.88214 1 3.30499 4.57714 3.30499 9C3.30499 13.2068 7.2376 17.4135 9.58832 19.5523C10.5745 20.4496 12.0355 20.4496 13.0217 19.5523C15.3724 17.4135 19.305 13.2068 19.305 9C19.305 4.57714 15.7278 1 11.305 1ZM11.305 11.8571C9.72785 11.8571 8.44785 10.5771 8.44785 9C8.44785 7.42286 9.72785 6.14286 11.305 6.14286C12.8821 6.14286 14.1621 7.42286 14.1621 9C14.1621 10.5771 12.8821 11.8571 11.305 11.8571Z" fill="url(#paint0_linear_945_1467)"/>
</g>
<defs>
<linearGradient id="paint0_linear_945_1467" x1="11.305" y1="-0.582229" x2="11.305" y2="22.1429" gradientUnits="userSpaceOnUse">
<stop stop-color="#E1FF27"/>
<stop offset="1" stop-color="#01F9CC"/>
</linearGradient>
</defs>
</svg>
