<svg width="14" height="13" viewBox="0 0 14 13" fill="none" xmlns="http://www.w3.org/2000/svg">
<g id="List_Icon" clip-path="url(#clip0_2086_6701)">
<path id="Vector" d="M9.75864 4.96877C10.6902 4.96877 11.4366 4.22243 11.4366 3.29786C11.4366 2.37329 10.6902 1.62695 9.75864 1.62695C8.82707 1.62695 8.07508 2.37329 8.07508 3.29786C8.07508 4.22243 8.82707 4.96877 9.75864 4.96877ZM5.26914 4.96877C6.20071 4.96877 6.94709 4.22243 6.94709 3.29786C6.94709 2.37329 6.20071 1.62695 5.26914 1.62695C4.33757 1.62695 3.58557 2.37329 3.58557 3.29786C3.58557 4.22243 4.33757 4.96877 5.26914 4.96877ZM5.26914 6.0827C3.96157 6.0827 1.34082 6.73436 1.34082 8.03209V8.37391C1.34082 10.0308 2.68397 11.3739 4.34082 11.3739H9.19746V8.03209C9.19746 6.73436 6.57671 6.0827 5.26914 6.0827ZM9.75864 6.0827C9.5959 6.0827 9.41071 6.09384 9.21429 6.11055C9.86527 6.57841 10.3198 7.20778 10.3198 8.03209V11.3739V11.3739C11.8879 11.3739 13.159 10.1028 13.159 8.53474V8.03209C13.159 6.73436 11.0662 6.0827 9.75864 6.0827Z" fill="url(#paint0_linear_2086_6701)"/>
</g>
<defs>
<linearGradient id="paint0_linear_2086_6701" x1="7.51389" y1="1.672" x2="7.51389" y2="9.42452" gradientUnits="userSpaceOnUse">
<stop stop-color="#E1FF27"/>
<stop offset="1" stop-color="#01F9CC"/>
</linearGradient>
<clipPath id="clip0_2086_6701">
<rect width="13" height="13" fill="white" transform="translate(0.75)"/>
</clipPath>
</defs>
</svg>
