<svg width="17" height="17" viewBox="0 0 17 17" fill="none" xmlns="http://www.w3.org/2000/svg">
<g id="instagram alt 2" clip-path="url(#clip0_1472_6503)">
<path id="Vector" d="M16.9557 5.01169C16.941 4.64372 16.9004 4.27944 16.834 3.91883C16.7676 3.55822 16.668 3.21602 16.5352 2.89221L16.5573 2.93636C16.3359 2.36233 16.0113 1.86191 15.5833 1.43506C15.1554 1.00822 14.661 0.684417 14.1003 0.463636L14.0781 0.441558C13.7682 0.323809 13.4399 0.231818 13.0931 0.165584C12.7463 0.0993506 12.3885 0.0662338 12.0195 0.0662338H11.9974C11.5399 0.0367963 11.1304 0.0183985 10.7689 0.011039C10.4073 0.00367942 9.65105 0 8.5 0C7.34895 0 6.58898 0.00367942 6.22005 0.011039C5.85113 0.0183985 5.44531 0.0367963 5.0026 0.0662338C4.61892 0.0662338 4.25369 0.10303 3.9069 0.176623C3.56011 0.250217 3.22439 0.345886 2.89974 0.463636L2.92188 0.441558C2.36111 0.677057 1.86676 1.00822 1.4388 1.43506C1.01085 1.86191 0.686199 2.34762 0.464844 2.89221L0.442708 2.93636C0.324653 3.24546 0.232422 3.57294 0.166016 3.91883C0.0996094 4.26472 0.0590275 4.62164 0.0442708 4.98961C0.0295141 5.44589 0.0184464 5.85433 0.0110677 6.21493C0.003689 6.57554 0 7.32986 0 8.47792C0 9.62598 0 10.384 0 10.7519C0 11.1199 0.0147567 11.532 0.0442708 11.9883C0.0590275 12.3416 0.0996094 12.6874 0.166016 13.026C0.232422 13.3645 0.324653 13.703 0.442708 14.0416C0.664064 14.6156 0.988713 15.116 1.41667 15.5429C1.84462 15.9697 2.33897 16.2935 2.89974 16.5143H2.94401C3.23915 16.6468 3.56011 16.7498 3.9069 16.8234C4.25369 16.897 4.61154 16.9338 4.98047 16.9338H5.0026C5.46007 16.9632 5.86957 16.9816 6.23112 16.989C6.59267 16.9963 7.34895 17 8.5 17C9.65105 17 10.411 16.9963 10.7799 16.989C11.1489 16.9816 11.5547 16.9632 11.9974 16.9338C12.3811 16.9338 12.7463 16.897 13.0931 16.8234C13.4399 16.7498 13.783 16.6541 14.1224 16.5364L14.0781 16.5584C14.6389 16.3229 15.1332 15.9918 15.5612 15.5649C15.9892 15.1381 16.3138 14.6524 16.5352 14.1078L16.5573 14.0636C16.6753 13.7398 16.7676 13.405 16.834 13.0591C16.9004 12.7132 16.941 12.3636 16.9557 12.0104C16.9705 11.5541 16.9816 11.1457 16.9889 10.7851C16.9963 10.4245 17 9.67014 17 8.52208C17 7.3593 17 6.59762 17 6.23701C17 5.87641 16.9852 5.46797 16.9557 5.01169ZM8.5 12.8273C7.89496 12.8273 7.32683 12.7169 6.79557 12.4961C6.26432 12.2606 5.79948 11.9478 5.40104 11.5578C5.0026 11.1677 4.69271 10.7078 4.47135 10.1779C4.23524 9.64805 4.11719 9.08139 4.11719 8.47792C4.11719 7.87446 4.23524 7.3078 4.47135 6.77792C4.69271 6.24805 5.0026 5.7881 5.40104 5.39805C5.79948 5.00801 6.26432 4.69524 6.79557 4.45974C7.32683 4.23896 7.89496 4.12857 8.5 4.12857C9.10504 4.12857 9.67317 4.23896 10.2044 4.45974C10.7209 4.69524 11.1784 5.00801 11.5768 5.39805C11.9753 5.7881 12.2852 6.24805 12.5065 6.77792C12.7426 7.3078 12.8607 7.87446 12.8607 8.47792C12.8607 9.08139 12.7426 9.64805 12.5065 10.1779C12.2852 10.7078 11.9753 11.1677 11.5768 11.5578C11.1784 11.9478 10.7209 12.2606 10.2044 12.4961C9.67317 12.7169 9.10504 12.8273 8.5 12.8273ZM13.0378 4.98961C12.7574 4.98961 12.5176 4.89026 12.3184 4.69156C12.1191 4.49286 12.0195 4.25368 12.0195 3.97403C12.0195 3.69437 12.1191 3.4552 12.3184 3.25649C12.5176 3.05779 12.7574 2.95844 13.0378 2.95844C13.3181 2.95844 13.5579 3.05779 13.7572 3.25649C13.9564 3.4552 14.056 3.69437 14.056 3.97403C14.056 4.25368 13.9564 4.49286 13.7572 4.69156C13.5579 4.89026 13.3181 4.98961 13.0378 4.98961ZM11.3333 8.47792C11.3333 9.25801 11.0566 9.92402 10.5033 10.476C9.94987 11.0279 9.28212 11.3039 8.5 11.3039C7.71788 11.3039 7.05013 11.0279 6.49674 10.476C5.94336 9.92402 5.66667 9.25801 5.66667 8.47792C5.66667 7.69783 5.94336 7.03182 6.49674 6.47987C7.05013 5.92792 7.71788 5.65195 8.5 5.65195C9.28212 5.65195 9.94987 5.92792 10.5033 6.47987C11.0566 7.03182 11.3333 7.69783 11.3333 8.47792Z" fill="white"/>
</g>
<defs>
<clipPath id="clip0_1472_6503">
<rect width="17" height="17" fill="white"/>
</clipPath>
</defs>
</svg>
