<svg width="27" height="26" viewBox="0 0 27 26" fill="none" xmlns="http://www.w3.org/2000/svg">
<g id="icon_TabBar">
<path id="Vector" d="M13.4997 4.875C9.48915 4.875 5.91215 6.72198 3.56458 9.61125C1.96764 11.5767 1.96764 14.4233 3.56458 16.3887C5.91215 19.278 9.48915 21.125 13.4997 21.125C17.5102 21.125 21.0872 19.278 23.4348 16.3887C25.0317 14.4233 25.0317 11.5767 23.4348 9.61125C21.0872 6.72198 17.5102 4.875 13.4997 4.875ZM13.4997 18.4167C10.5097 18.4167 8.08301 15.99 8.08301 13C8.08301 10.01 10.5097 7.58333 13.4997 7.58333C16.4897 7.58333 18.9163 10.01 18.9163 13C18.9163 15.99 16.4897 18.4167 13.4997 18.4167ZM13.4997 9.75C11.7013 9.75 10.2497 11.2017 10.2497 13C10.2497 14.7983 11.7013 16.25 13.4997 16.25C15.298 16.25 16.7497 14.7983 16.7497 13C16.7497 11.2017 15.298 9.75 13.4997 9.75Z" fill="white"/>
</g>
</svg>
